<?xml version="1.0" encoding="utf-8"?>
<!-- Generator: Adobe Illustrator 21.0.0, SVG Export Plug-In . SVG Version: 6.00 Build 0)  -->
<svg version="1.1" id="Capa_1" xmlns="http://www.w3.org/2000/svg" xmlns:xlink="http://www.w3.org/1999/xlink" x="0px" y="0px"
	 viewBox="0 0 97.6 79.5" style="enable-background:new 0 0 97.6 79.5;" xml:space="preserve">
<style type="text/css">
	.st0{fill:#FFFFFF;}
</style>
<g>
	<path class="st0" d="M97.5,9.5c-0.1-0.2-0.4-0.2-0.6-0.1c-2.9,1.3-6,2.2-9.2,2.8c3.4-2.5,5.9-6,7.1-10c0.1-0.2,0-0.4-0.2-0.5
		c-0.2-0.1-0.4-0.1-0.6,0c-3.8,2.2-7.9,3.8-12.2,4.7C78.2,2.3,72.9,0,67.4,0C56.2,0,47.1,9.1,47.1,20.3c0,1.4,0.1,2.7,0.4,4
		c-15.5-1-30-8.4-39.9-20.5C7.5,3.7,7.3,3.6,7.2,3.6C7,3.6,6.9,3.7,6.8,3.9C5,7,4,10.5,4,14.1c0,6.2,2.8,12.1,7.6,15.9
		c-2.5-0.3-4.9-1.1-7.1-2.3c-0.1-0.1-0.3-0.1-0.5,0c-0.1,0.1-0.2,0.2-0.2,0.4l0,0.3c0,8.9,5.9,16.8,14.3,19.4
		c-2.2,0.4-4.5,0.3-6.8-0.1c-0.2,0-0.3,0-0.5,0.2c-0.1,0.1-0.2,0.3-0.1,0.5c2.5,7.9,9.5,13.4,17.6,14c-6.8,5-14.8,7.6-23.3,7.6
		c-1.6,0-3.1-0.1-4.7-0.3c-0.2,0-0.4,0.1-0.5,0.3c-0.1,0.2,0,0.5,0.2,0.6c9.2,5.9,19.8,9,30.7,9c35.6,0,56.9-28.9,56.9-56.9
		c0-0.8,0-1.6,0-2.3c3.8-2.8,7.1-6.3,9.8-10.2C97.7,9.9,97.7,9.6,97.5,9.5z"/>
</g>
</svg>
