<?xml version="1.0" encoding="iso-8859-1"?>
<!-- Generator: Adobe Illustrator 19.0.0, SVG Export Plug-In . SVG Version: 6.00 Build 0)  -->
<svg version="1.1" id="Layer_1" xmlns="http://www.w3.org/2000/svg" xmlns:xlink="http://www.w3.org/1999/xlink" x="0px" y="0px"
	 viewBox="0 0 512 512" style="enable-background:new 0 0 512 512; fill:#fff;" xml:space="preserve">
<g>
	<g>
		<path d="M445.517,273.066H486.4c4.71,0,8.533-3.823,8.533-8.533V145.066c0-4.71-3.823-8.533-8.533-8.533h-25.6V76.799
			c0-4.71-3.823-8.533-8.533-8.533h-80.06l-6.178-12.356c-1.988-3.968-6.682-5.751-10.795-4.105l-25.08,10.035L288.538,3.575
			c-2.577-3.601-7.475-4.642-11.29-2.381L163.576,68.556c-0.486-0.085-0.93-0.29-1.442-0.29H42.667
			C19.106,68.266,0,87.372,0,110.933v392.533c0,4.71,3.823,8.533,8.533,8.533H486.4c4.71,0,8.533-3.823,8.533-8.533V383.999
			c0-4.71-3.823-8.533-8.533-8.533h-42.667c-30.447,0-54.775-26.709-50.765-57.933C396.279,291.72,419.49,273.066,445.517,273.066z
			 M82.338,136.533L279.211,19.865l34.645,48.495L143.42,136.533H82.338z M189.38,136.533L354.278,70.57l32.981,65.963H189.38z"/>
	</g>
</g>
<g>
	<g>
		<path d="M503.467,290.133h-59.733c-19.942,0-35.951,17.195-33.963,37.547c1.732,17.732,17.673,30.72,35.49,30.72h58.206
			c4.71,0,8.533-3.823,8.533-8.533v-51.2C512,293.955,508.177,290.133,503.467,290.133z"/>
	</g>
</g>
<g>
</g>
<g>
</g>
<g>
</g>
<g>
</g>
<g>
</g>
<g>
</g>
<g>
</g>
<g>
</g>
<g>
</g>
<g>
</g>
<g>
</g>
<g>
</g>
<g>
</g>
<g>
</g>
<g>
</g>
</svg>
